<?xml version="1.0" encoding="utf-8" ?>
<svg baseProfile="full" height="1200" version="1.1" width="1800" xmlns="http://www.w3.org/2000/svg" xmlns:ev="http://www.w3.org/2001/xml-events" xmlns:xlink="http://www.w3.org/1999/xlink"><defs><filter height="160%" id="shadow" width="140%" x="-20%" y="-20%"><feOffset dx="0" dy="6" in="SourceAlpha" result="off" /><feGaussianBlur in="off" result="blur" stdDeviation="8" /><feColorMatrix in="blur" type="matrix" values="[0, 0, 0, 0, 0.08, 0, 0, 0, 0, 0.1, 0, 0, 0, 0, 0.16, 0, 0, 0, 0.22, 0]" /><feBlend in="SourceGraphic" mode="normal" /></filter><linearGradient id="grad_dram" x1="0" x2="1" y1="0" y2="1"><stop offset="0%" stop-color="#FFF1D7" /><stop offset="55%" stop-color="#FFD7A3" /><stop offset="100%" stop-color="#FFB35E" /></linearGradient><linearGradient id="grad_pmem" x1="0" x2="1" y1="0" y2="1"><stop offset="0%" stop-color="#EAF4FF" /><stop offset="55%" stop-color="#C7E0FF" /><stop offset="100%" stop-color="#94C6FF" /></linearGradient><linearGradient id="grad_engine" x1="0" x2="0" y1="0" y2="1"><stop offset="0%" stop-color="#FFF4E2" /><stop offset="48%" stop-color="#FFFFFF" /><stop offset="100%" stop-color="#EAF4FF" /></linearGradient><linearGradient id="grad_boundary" x1="0" x2="1" y1="0" y2="1"><stop offset="0%" stop-color="#ECEFF4" /><stop offset="100%" stop-color="#F8FAFC" /></linearGradient><marker id="marker_short" markerHeight="10" markerUnits="strokeWidth" markerWidth="10" orient="auto" refX="10" refY="5"><path d="M0,0 L10,5 L0,10 z" fill="#FF6B6B" /></marker><marker id="marker_eb" markerHeight="10" markerUnits="strokeWidth" markerWidth="10" orient="auto" refX="10" refY="5"><path d="M0,0 L10,5 L0,10 z" fill="#F59E0B" /></marker><marker id="marker_unpred" markerHeight="10" markerUnits="strokeWidth" markerWidth="10" orient="auto" refX="10" refY="5"><path d="M0,0 L10,5 L0,10 z" fill="#9CA3AF" /></marker><marker id="marker_frozen" markerHeight="10" markerUnits="strokeWidth" markerWidth="10" orient="auto" refX="10" refY="5"><path d="M0,0 L10,5 L0,10 z" fill="#4F8FDB" /></marker><marker id="marker_lb" markerHeight="10" markerUnits="strokeWidth" markerWidth="10" orient="auto" refX="10" refY="5"><path d="M0,0 L10,5 L0,10 z" fill="#0EA5A5" /></marker><marker id="marker_later" markerHeight="10" markerUnits="strokeWidth" markerWidth="10" orient="auto" refX="10" refY="5"><path d="M0,0 L10,5 L0,10 z" fill="#0EA5A5" /></marker></defs><rect fill="#F6F7FB" height="1200" width="1800" x="0" y="0" /><defs><filter height="160%" id="shadow" width="140%" x="-20%" y="-20%"><feOffset dx="0" dy="6" in="SourceAlpha" result="off" /><feGaussianBlur in="off" result="blur" stdDeviation="8" /><feColorMatrix in="blur" type="matrix" values="[0, 0, 0, 0, 0.08, 0, 0, 0, 0, 0.1, 0, 0, 0, 0, 0.16, 0, 0, 0, 0.22, 0]" /><feBlend in="SourceGraphic" mode="normal" /></filter><linearGradient id="grad_dram" x1="0" x2="1" y1="0" y2="1"><stop offset="0%" stop-color="#FFF1D7" /><stop offset="55%" stop-color="#FFD7A3" /><stop offset="100%" stop-color="#FFB35E" /></linearGradient><linearGradient id="grad_pmem" x1="0" x2="1" y1="0" y2="1"><stop offset="0%" stop-color="#EAF4FF" /><stop offset="55%" stop-color="#C7E0FF" /><stop offset="100%" stop-color="#94C6FF" /></linearGradient><linearGradient id="grad_engine" x1="0" x2="0" y1="0" y2="1"><stop offset="0%" stop-color="#FFF4E2" /><stop offset="48%" stop-color="#FFFFFF" /><stop offset="100%" stop-color="#EAF4FF" /></linearGradient><linearGradient id="grad_boundary" x1="0" x2="1" y1="0" y2="1"><stop offset="0%" stop-color="#ECEFF4" /><stop offset="100%" stop-color="#F8FAFC" /></linearGradient><marker id="marker_short" markerHeight="10" markerUnits="strokeWidth" markerWidth="10" orient="auto" refX="10" refY="5"><path d="M0,0 L10,5 L0,10 z" fill="#FF6B6B" /></marker><marker id="marker_eb" markerHeight="10" markerUnits="strokeWidth" markerWidth="10" orient="auto" refX="10" refY="5"><path d="M0,0 L10,5 L0,10 z" fill="#F59E0B" /></marker><marker id="marker_unpred" markerHeight="10" markerUnits="strokeWidth" markerWidth="10" orient="auto" refX="10" refY="5"><path d="M0,0 L10,5 L0,10 z" fill="#9CA3AF" /></marker><marker id="marker_frozen" markerHeight="10" markerUnits="strokeWidth" markerWidth="10" orient="auto" refX="10" refY="5"><path d="M0,0 L10,5 L0,10 z" fill="#4F8FDB" /></marker><marker id="marker_lb" markerHeight="10" markerUnits="strokeWidth" markerWidth="10" orient="auto" refX="10" refY="5"><path d="M0,0 L10,5 L0,10 z" fill="#0EA5A5" /></marker><marker id="marker_later" markerHeight="10" markerUnits="strokeWidth" markerWidth="10" orient="auto" refX="10" refY="5"><path d="M0,0 L10,5 L0,10 z" fill="#0EA5A5" /></marker></defs><text fill="#111827" font-family="Noto Sans CJK KR" font-size="40" font-weight="800" text-anchor="start" x="80" y="86">ObjPart object categories</text><text fill="#334155" font-family="Noto Sans CJK KR" font-size="30" font-weight="500" text-anchor="start" x="80" y="130">allocation 시점 배치와 category-specific handling</text><rect fill="#FFFFFF" height="35" rx="18" ry="18" stroke="#D9E1EB" stroke-width="1.2" width="802.64" x="990" y="52" /><text fill="#475569" font-family="Noto Sans CJK KR" font-size="19" font-weight="500" text-anchor="middle" x="1391.32" y="76.15">allocation semantics only · not protection / handoff</text><rect fill="#FFFFFF" height="860" opacity="0.65" rx="32" ry="32" stroke="#E7EDF5" stroke-width="1.2" width="360" x="42" y="155" /><rect fill="#FFFFFF" height="875" opacity="0.65" rx="34" ry="34" stroke="#E0E7F0" stroke-width="1.2" width="620" x="1075" y="145" /><rect fill="url(#grad_dram)" filter="url(#shadow)" height="300" opacity="1.0" rx="34" ry="34" stroke="#FFB15A" stroke-width="2.2" width="560" x="1110" y="180" /><rect fill="url(#grad_boundary)" height="120" opacity="1.0" rx="28" ry="28" stroke="#D7DDE6" stroke-width="1.7" width="420" x="1170" y="520" /><rect fill="url(#grad_pmem)" filter="url(#shadow)" height="300" opacity="1.0" rx="34" ry="34" stroke="#8CB8EE" stroke-width="2.2" width="560" x="1110" y="700" /><text fill="#A14D00" font-family="Noto Sans CJK KR" font-size="34" font-weight="800" text-anchor="start" x="1140" y="238">DRAM</text><text fill="#9A5A14" font-family="Noto Sans CJK KR" font-size="21" font-weight="500" text-anchor="start" x="1140" y="274">fast tier · strong early placement</text><text fill="#215E9A" font-family="Noto Sans CJK KR" font-size="34" font-weight="800" text-anchor="start" x="1140" y="758">PMEM</text><text fill="#2C5F92" font-family="Noto Sans CJK KR" font-size="21" font-weight="500" text-anchor="start" x="1140" y="794">slow tier · stable / later-burst starting point</text><text fill="#475569" font-family="Noto Sans CJK KR" font-size="24" font-weight="700" text-anchor="middle" x="1380" y="570">weak bias / general dynamic path</text><text fill="#64748B" font-family="Noto Sans CJK KR" font-size="18" font-weight="400" text-anchor="middle" x="1380" y="605">runtime tiering와 가장 직접적으로 겹치는 영역</text><rect fill="url(#grad_engine)" filter="url(#shadow)" height="740" opacity="1.0" rx="42" ry="42" stroke="#D8E0EB" stroke-width="2.0" width="410" x="555" y="210" /><text fill="#111827" font-family="Noto Sans CJK KR" font-size="42" font-weight="800" text-anchor="middle" x="760" y="298">ObjPart</text><text fill="#334155" font-family="Noto Sans CJK KR" font-size="30" font-weight="600" text-anchor="middle" x="760" y="348">allocation / placement engine</text><text fill="#64748B" font-family="Noto Sans CJK KR" font-size="22" font-weight="500" text-anchor="middle" x="760" y="404">category meaning  →  initial pool choice</text><rect fill="#FFEDD5" height="62" opacity="0.9" rx="20" ry="20" stroke="none" width="290" x="615" y="465" /><text fill="#4B5563" font-family="Noto Sans CJK KR" font-size="22" font-weight="600" text-anchor="middle" x="760" y="505">strong DRAM bias</text><rect fill="#F8FAFC" height="62" opacity="0.9" rx="20" ry="20" stroke="none" width="290" x="615" y="560" /><text fill="#4B5563" font-family="Noto Sans CJK KR" font-size="22" font-weight="600" text-anchor="middle" x="760" y="600">dynamic / weak bias</text><rect fill="#E0F2FE" height="62" opacity="0.9" rx="20" ry="20" stroke="none" width="290" x="615" y="655" /><text fill="#4B5563" font-family="Noto Sans CJK KR" font-size="22" font-weight="600" text-anchor="middle" x="760" y="695">PMEM bias</text><text fill="#475569" font-family="Noto Sans CJK KR" font-size="20" font-weight="500" text-anchor="middle" x="760" y="820"><tspan dy="0" x="760">initial placement이 먼저 결정되고,</tspan><tspan dy="27.0" x="760">protection / handoff는 그 위의 다음 단계</tspan></text><rect fill="#FFFFFF" filter="url(#shadow)" height="124" rx="26" ry="26" stroke="#FF6B6B" stroke-width="2.4" width="320" x="70" y="190" /><rect fill="#FF6B6B" height="124" rx="12" ry="12" width="12" x="70" y="190" /><circle cx="112" cy="222" fill="#FF6B6B" opacity="0.16" r="16" stroke="#FF6B6B" stroke-width="1.5" /><line stroke="#FF6B6B" stroke-width="2.2" x1="112" x2="112" y1="209" y2="235" /><line stroke="#FF6B6B" stroke-width="2.2" x1="99" x2="125" y1="222" y2="222" /><line stroke="#FF6B6B" stroke-width="2.2" x1="102" x2="122" y1="212" y2="232" /><line stroke="#FF6B6B" stroke-width="2.2" x1="122" x2="102" y1="212" y2="232" /><text fill="#111827" font-family="Noto Sans CJK KR" font-size="28" font-weight="700" text-anchor="start" x="142" y="232">short</text><text fill="#334155" font-family="Noto Sans CJK KR" font-size="19" font-weight="400" text-anchor="start" x="98" y="268">짧은 수명 · 초기 배치 민감</text><rect fill="#F3F6FA" height="32" rx="16" ry="16" stroke="none" stroke-width="1.2" width="322.84000000000003" x="94" y="276" /><text fill="#334155" font-family="Noto Sans CJK KR" font-size="18" font-weight="500" text-anchor="middle" x="255.42000000000002" y="298.3">allocation-path 해석 핵심</text><rect fill="#FFFFFF" filter="url(#shadow)" height="124" rx="26" ry="26" stroke="#F59E0B" stroke-width="2.4" width="320" x="150" y="360" /><rect fill="#F59E0B" height="124" rx="12" ry="12" width="12" x="150" y="360" /><circle cx="192" cy="392" fill="#F59E0B" opacity="0.16" r="16" stroke="#F59E0B" stroke-width="1.5" /><line stroke="#F59E0B" stroke-width="2.2" x1="196.0" x2="205.0" y1="392.0" y2="392.0" /><line stroke="#F59E0B" stroke-width="2.2" x1="195.46410161513776" x2="203.2583302491977" y1="394.0" y2="398.5" /><line stroke="#F59E0B" stroke-width="2.2" x1="194.0" x2="198.5" y1="395.46410161513774" y2="403.2583302491977" /><line stroke="#F59E0B" stroke-width="2.2" x1="192.0" x2="192.0" y1="396.0" y2="405.0" /><line stroke="#F59E0B" stroke-width="2.2" x1="190.0" x2="185.5" y1="395.46410161513774" y2="403.2583302491977" /><line stroke="#F59E0B" stroke-width="2.2" x1="188.53589838486224" x2="180.7416697508023" y1="394.0" y2="398.5" /><text fill="#111827" font-family="Noto Sans CJK KR" font-size="28" font-weight="700" text-anchor="start" x="222" y="402">EB object</text><text fill="#334155" font-family="Noto Sans CJK KR" font-size="19" font-weight="400" text-anchor="start" x="178" y="438">생성 직후 burst · 초반 hotness</text><rect fill="#F3F6FA" height="32" rx="16" ry="16" stroke="none" stroke-width="1.2" width="238.6" x="174" y="446" /><text fill="#334155" font-family="Noto Sans CJK KR" font-size="18" font-weight="500" text-anchor="middle" x="293.3" y="468.3">later EB source</text><rect fill="#FFFFFF" filter="url(#shadow)" height="124" rx="26" ry="26" stroke="#9CA3AF" stroke-width="2.4" width="320" x="90" y="530" /><rect fill="#9CA3AF" height="124" rx="12" ry="12" width="12" x="90" y="530" /><circle cx="132" cy="562" fill="#9CA3AF" opacity="0.16" r="16" stroke="#9CA3AF" stroke-width="1.5" /><text fill="#9CA3AF" font-family="Noto Sans CJK KR" font-size="22" font-weight="700" text-anchor="middle" x="132" y="568">?</text><text fill="#111827" font-family="Noto Sans CJK KR" font-size="28" font-weight="700" text-anchor="start" x="162" y="572">unpredictable</text><text fill="#334155" font-family="Noto Sans CJK KR" font-size="19" font-weight="400" text-anchor="start" x="118" y="608">residual dynamic · weak category bias</text><rect fill="#F3F6FA" height="32" rx="16" ry="16" stroke="none" stroke-width="1.2" width="322.84000000000003" x="114" y="616" /><text fill="#334155" font-family="Noto Sans CJK KR" font-size="18" font-weight="500" text-anchor="middle" x="275.42" y="638.3">MEMTIS direct compare</text><rect fill="#FFFFFF" filter="url(#shadow)" height="124" rx="26" ry="26" stroke="#4F8FDB" stroke-width="2.4" width="320" x="70" y="700" /><rect fill="#4F8FDB" height="124" rx="12" ry="12" width="12" x="70" y="700" /><circle cx="112" cy="732" fill="#4F8FDB" opacity="0.16" r="16" stroke="#4F8FDB" stroke-width="1.5" /><line stroke="#4F8FDB" stroke-width="2.2" x1="99.0" x2="125.0" y1="732.0" y2="732.0" /><line stroke="#4F8FDB" stroke-width="2.2" x1="105.5" x2="118.5" y1="720.7416697508023" y2="743.2583302491977" /><line stroke="#4F8FDB" stroke-width="2.2" x1="118.5" x2="105.5" y1="720.7416697508023" y2="743.2583302491977" /><text fill="#111827" font-family="Noto Sans CJK KR" font-size="28" font-weight="700" text-anchor="start" x="142" y="742">frozen</text><text fill="#334155" font-family="Noto Sans CJK KR" font-size="19" font-weight="400" text-anchor="start" x="98" y="778">장수명 · 안정적</text><rect fill="#F3F6FA" height="32" rx="16" ry="16" stroke="none" stroke-width="1.2" width="182.44" x="94" y="786" /><text fill="#334155" font-family="Noto Sans CJK KR" font-size="18" font-weight="500" text-anchor="middle" x="185.22" y="808.3">static base</text><rect fill="#FFFFFF" filter="url(#shadow)" height="124" rx="26" ry="26" stroke="#0EA5A5" stroke-width="2.4" width="320" x="150" y="870" /><rect fill="#0EA5A5" height="124" rx="12" ry="12" width="12" x="150" y="870" /><circle cx="192" cy="902" fill="#0EA5A5" opacity="0.16" r="16" stroke="#0EA5A5" stroke-width="1.5" /><circle cx="192" cy="902" fill="none" r="12" stroke="#0EA5A5" stroke-width="2.2" /><line stroke="#0EA5A5" stroke-width="2.0" x1="192" x2="192" y1="902" y2="895" /><line stroke="#0EA5A5" stroke-width="2.0" x1="192" x2="199" y1="902" y2="906" /><path d="M 207,902 q 6,-10 12,0" fill="none" stroke="#0EA5A5" stroke-width="2.0" /><path d="M 217,897 l 7,5 l -7,5" fill="none" stroke="#0EA5A5" stroke-width="2.0" /><text fill="#111827" font-family="Noto Sans CJK KR" font-size="28" font-weight="700" text-anchor="start" x="222" y="912">LB object</text><text fill="#334155" font-family="Noto Sans CJK KR" font-size="19" font-weight="400" text-anchor="start" x="178" y="948">later-phase burst · 늦게 중요</text><rect fill="#F3F6FA" height="32" rx="16" ry="16" stroke="none" stroke-width="1.2" width="238.6" x="174" y="956" /><text fill="#334155" font-family="Noto Sans CJK KR" font-size="18" font-weight="500" text-anchor="middle" x="293.3" y="978.3">later LB source</text><rect fill="#FFF6F6" filter="url(#shadow)" height="84" opacity="1.0" rx="20" ry="20" stroke="#FF6B6B" stroke-width="2.2" width="230" x="1145" y="280" /><text fill="#0F172A" font-family="Noto Sans CJK KR" font-size="23" font-weight="700" text-anchor="start" x="1167" y="314">short</text><text fill="#334155" font-family="Noto Sans CJK KR" font-size="18" font-weight="400" text-anchor="start" x="1167" y="341">DRAM에 바로 고정</text><rect fill="#FFF8E7" filter="url(#shadow)" height="88" opacity="1.0" rx="20" ry="20" stroke="#F59E0B" stroke-width="2.2" width="230" x="1405" y="346" /><text fill="#0F172A" font-family="Noto Sans CJK KR" font-size="23" font-weight="700" text-anchor="start" x="1427" y="380">EB object</text><text fill="#334155" font-family="Noto Sans CJK KR" font-size="18" font-weight="400" text-anchor="start" x="1427" y="407">초기 burst 대비</text><rect fill="#FFFFFF" filter="url(#shadow)" height="74" opacity="1.0" rx="20" ry="20" stroke="#9CA3AF" stroke-width="2.2" width="335" x="1210" y="548" /><text fill="#0F172A" font-family="Noto Sans CJK KR" font-size="22" font-weight="700" text-anchor="start" x="1232" y="582">unpredictable</text><text fill="#334155" font-family="Noto Sans CJK KR" font-size="17" font-weight="400" text-anchor="start" x="1232" y="609">일반 dynamic path</text><rect fill="#F1F7FF" filter="url(#shadow)" height="84" opacity="1.0" rx="20" ry="20" stroke="#4F8FDB" stroke-width="2.2" width="245" x="1145" y="786" /><text fill="#0F172A" font-family="Noto Sans CJK KR" font-size="23" font-weight="700" text-anchor="start" x="1167" y="820">frozen</text><text fill="#334155" font-family="Noto Sans CJK KR" font-size="18" font-weight="400" text-anchor="start" x="1167" y="847">PMEM에 오래 유지</text><rect fill="#EBFFFF" filter="url(#shadow)" height="88" opacity="1.0" rx="20" ry="20" stroke="#0EA5A5" stroke-width="2.2" width="230" x="1405" y="886" /><text fill="#0F172A" font-family="Noto Sans CJK KR" font-size="23" font-weight="700" text-anchor="start" x="1427" y="920">LB object</text><text fill="#334155" font-family="Noto Sans CJK KR" font-size="18" font-weight="400" text-anchor="start" x="1427" y="947">처음엔 PMEM</text><rect fill="none" height="78" opacity="0.46" rx="20" ry="20" stroke="#0EA5A5" stroke-width="2.2" width="195" x="1438" y="220" /><text fill="#0EA5A5" font-family="Noto Sans CJK KR" font-size="22" font-weight="700" text-anchor="start" x="1460" y="254">later burst</text><text fill="#0EA5A5" font-family="Noto Sans CJK KR" font-size="17" font-weight="400" text-anchor="start" x="1460" y="281">→ promote to DRAM</text><path d="M 390,252 C 520,248 910,290 1145,322" fill="none" marker-end="url(#marker_short)" opacity="1.0" stroke="#FF6B6B" stroke-linecap="round" stroke-linejoin="round" stroke-width="9" /><path d="M 470,422 C 560,430 980,402 1405,390" fill="none" marker-end="url(#marker_eb)" opacity="1.0" stroke="#F59E0B" stroke-linecap="round" stroke-linejoin="round" stroke-width="8" /><path d="M 410,592 C 560,592 1010,585 1210,585" fill="none" marker-end="url(#marker_unpred)" opacity="1.0" stroke="#9CA3AF" stroke-linecap="round" stroke-linejoin="round" stroke-width="7" /><path d="M 390,762 C 530,752 900,820 1145,828" fill="none" marker-end="url(#marker_frozen)" opacity="1.0" stroke="#4F8FDB" stroke-linecap="round" stroke-linejoin="round" stroke-width="8" /><path d="M 470,932 C 560,940 990,938 1405,930" fill="none" marker-end="url(#marker_lb)" opacity="1.0" stroke="#0EA5A5" stroke-linecap="round" stroke-linejoin="round" stroke-width="8" /><path d="M 1518,886 C 1595,780 1595,400 1518,300" fill="none" marker-end="url(#marker_later)" opacity="0.9" stroke="#0EA5A5" stroke-dasharray="11,10" stroke-linecap="round" stroke-linejoin="round" stroke-width="5.2" /><rect fill="#FFE5E5" height="30" rx="16" ry="16" stroke="#FFC4C4" stroke-width="1.2" width="168.4" x="610" y="250" /><text fill="#A52B2B" font-family="Noto Sans CJK KR" font-size="18" font-weight="700" text-anchor="middle" x="694.2" y="271.3">DRAM-first</text><rect fill="#FFF0CF" height="30" rx="16" ry="16" stroke="#F7D89B" stroke-width="1.2" width="168.4" x="650" y="412" /><text fill="#9A6200" font-family="Noto Sans CJK KR" font-size="18" font-weight="700" text-anchor="middle" x="734.2" y="433.3">DRAM-first</text><rect fill="#EFF2F5" height="30" rx="16" ry="16" stroke="#D6DCE5" stroke-width="1.2" width="154.36" x="634" y="588" /><text fill="#556070" font-family="Noto Sans CJK KR" font-size="18" font-weight="700" text-anchor="middle" x="711.1800000000001" y="609.3">weak bias</text><rect fill="#EAF3FF" height="30" rx="16" ry="16" stroke="#C2D9F5" stroke-width="1.2" width="168.4" x="646" y="760" /><text fill="#245C93" font-family="Noto Sans CJK KR" font-size="18" font-weight="700" text-anchor="middle" x="730.2" y="781.3">PMEM-first</text><rect fill="#E8FFFF" height="30" rx="16" ry="16" stroke="#B7EEEE" stroke-width="1.2" width="168.4" x="650" y="930" /><text fill="#0B7070" font-family="Noto Sans CJK KR" font-size="18" font-weight="700" text-anchor="middle" x="734.2" y="951.3">PMEM-first</text><rect fill="#FFF1F1" height="30" rx="16" ry="16" stroke="#FFD1D1" stroke-width="1.2" width="280.72" x="935" y="274" /><text fill="#A52B2B" font-family="Noto Sans CJK KR" font-size="18" font-weight="600" text-anchor="middle" x="1075.3600000000001" y="295.3">allocation path 중요</text><rect fill="#FFF4DE" height="30" rx="16" ry="16" stroke="#F5DCAB" stroke-width="1.2" width="224.56" x="1085" y="434" /><text fill="#8C5A00" font-family="Noto Sans CJK KR" font-size="18" font-weight="600" text-anchor="middle" x="1197.28" y="455.3">early prefetch</text><rect fill="#F3F5F7" height="30" rx="16" ry="16" stroke="#E2E8F0" stroke-width="1.2" width="182.44" x="1020" y="617" /><text fill="#556070" font-family="Noto Sans CJK KR" font-size="18" font-weight="600" text-anchor="middle" x="1111.22" y="638.3">handling 약함</text><rect fill="#EFF6FF" height="30" rx="16" ry="16" stroke="#C8DDF6" stroke-width="1.2" width="280.72" x="930" y="853" /><text fill="#245C93" font-family="Noto Sans CJK KR" font-size="18" font-weight="600" text-anchor="middle" x="1070.3600000000001" y="874.3">active handling 적음</text><rect fill="#E9FFFF" height="30" rx="16" ry="16" stroke="#BDECEC" stroke-width="1.2" width="238.6" x="1092" y="966" /><text fill="#0B7070" font-family="Noto Sans CJK KR" font-size="18" font-weight="600" text-anchor="middle" x="1211.3" y="987.3">later promotion</text><text fill="#475569" font-family="Noto Sans CJK KR" font-size="24" font-weight="700" text-anchor="middle" x="205" y="170">category objects</text><text fill="#475569" font-family="Noto Sans CJK KR" font-size="24" font-weight="700" text-anchor="middle" x="1385" y="170">initial memory tier / handling</text><line stroke="#D7DEE8" stroke-width="1.5" x1="80" x2="1720" y1="1060" y2="1060" /><text fill="#111827" font-family="Noto Sans CJK KR" font-size="24" font-weight="700" text-anchor="middle" x="900" y="1110">핵심: category 차이는 먼저 allocation 시점의 placement 가정에서 생기고,</text><text fill="#111827" font-family="Noto Sans CJK KR" font-size="24" font-weight="700" text-anchor="middle" x="900" y="1146">protection / handoff semantics는 그 위에 올라가는 다음 단계다.</text><text fill="#64748B" font-family="Noto Sans CJK KR" font-size="16" font-weight="400" text-anchor="start" x="80" y="1178">Figure. ObjPart classifies profiled objects into short, frozen, EB, LB, and unpredictable categories; each differs in initial placement bias and optional ObjPart-side handling.</text></svg>
